<svg width="12" height="13" viewBox="0 0 12 13" fill="none" xmlns="http://www.w3.org/2000/svg">
<path d="M4.90039 12.8926C4.63672 12.8926 4.4375 12.6816 4.4375 12.418V1.12695C4.4375 0.863281 4.63672 0.652344 4.90039 0.652344C5.16992 0.652344 5.38086 0.863281 5.38086 1.12695V12.418C5.38086 12.6816 5.16992 12.8926 4.90039 12.8926ZM8.84961 11.5918C8.57422 11.5918 8.375 11.3809 8.375 11.123V2.42188C8.375 2.16406 8.57422 1.94727 8.84961 1.94727C9.11328 1.94727 9.31836 2.16406 9.31836 2.42188V11.123C9.31836 11.3809 9.11328 11.5918 8.84961 11.5918ZM2.93164 10.5312C2.66797 10.5312 2.46289 10.3203 2.46289 10.0566V3.48828C2.46289 3.22461 2.66797 3.00781 2.93164 3.00781C3.20117 3.00781 3.40625 3.22461 3.40625 3.48828V10.0566C3.40625 10.3203 3.20117 10.5312 2.93164 10.5312ZM6.875 9.81641C6.60547 9.81641 6.40625 9.61133 6.40625 9.34766V4.19727C6.40625 3.93359 6.60547 3.72266 6.875 3.72266C7.14453 3.72266 7.34961 3.93359 7.34961 4.19727V9.34766C7.34961 9.61133 7.14453 9.81641 6.875 9.81641ZM10.8184 8.63867C10.5488 8.63867 10.3496 8.42773 10.3496 8.16992V5.375C10.3496 5.11719 10.5488 4.90039 10.8184 4.90039C11.082 4.90039 11.293 5.11719 11.293 5.375V8.16992C11.293 8.42773 11.082 8.63867 10.8184 8.63867ZM0.957031 8.13477C0.693359 8.13477 0.494141 7.92383 0.494141 7.66016V5.88477C0.494141 5.62109 0.693359 5.4043 0.957031 5.4043C1.23242 5.4043 1.4375 5.62109 1.4375 5.88477V7.66016C1.4375 7.92383 1.23242 8.13477 0.957031 8.13477Z" fill="#3076FF"/>
</svg>
