<svg width="18" height="22" viewBox="0 0 18 22" fill="none" xmlns="http://www.w3.org/2000/svg">
<path d="M14.6948 17.2988V12.501C14.6948 11.3721 14.5205 10.4092 13.5908 9.47119L8.87598 4.76465C7.94629 3.83496 7.0083 3.56934 5.84619 3.56934H4.64258V3.09619C4.64258 1.43604 5.53076 0.556152 7.21582 0.556152H11.6401V5.46191C11.6401 6.3252 12.1299 6.81494 13.0015 6.81494H17.5918V14.6924C17.5918 16.4189 16.7202 17.2988 15.0186 17.2988H14.6948ZM13.1592 5.77734C12.8188 5.77734 12.6943 5.63623 12.6943 5.2959L12.686 0.896484C12.9434 0.929688 13.1841 1.1123 13.4663 1.41113L16.9775 4.98877C17.2681 5.2793 17.4507 5.51172 17.4922 5.77734H13.1592ZM3.18994 21.4409C1.47168 21.4409 0.616699 20.5693 0.616699 18.8345V7.30469C0.616699 5.56982 1.47998 4.69824 3.18994 4.69824H6.20312V10.708C6.20312 11.7705 6.70117 12.2769 7.77197 12.2769H13.5659V18.8345C13.5659 20.561 12.7109 21.4409 10.9927 21.4409H3.18994ZM7.76367 11.1396C7.48145 11.1396 7.33203 10.9985 7.33203 10.7163V4.90576C7.65576 4.99707 7.97119 5.24609 8.33643 5.61963L12.769 10.1353C13.1426 10.5171 13.3335 10.8159 13.4165 11.1396H7.76367Z" fill="url(#paint0_linear_1_530)"/>
<defs>
<linearGradient id="paint0_linear_1_530" x1="9.5" y1="0" x2="9.5" y2="22" gradientUnits="userSpaceOnUse">
<stop stop-color="#3076FF"/>
<stop offset="1" stop-color="#1D49E5"/>
</linearGradient>
</defs>
</svg>
