<svg width="32" height="32" viewBox="0 0 32 32" fill="none" xmlns="http://www.w3.org/2000/svg">
<g filter="url(#filter0_b_80_419)">
<circle cx="16" cy="16" r="16" fill="#191919" fill-opacity="0.7"/>
</g>
<path d="M12.3672 21.7983C11.6714 21.7983 11.3126 21.4395 11.3199 20.751V10.6802C11.3199 9.9917 11.6788 9.63281 12.3672 9.63281H14.0811C14.7769 9.64014 15.1285 9.96973 15.1285 10.6802V20.751C15.1285 21.4395 14.7769 21.7983 14.0811 21.7983H12.3672ZM17.9117 21.7983C17.2159 21.7983 16.8643 21.4395 16.8643 20.751V10.6802C16.8643 9.9917 17.2159 9.63281 17.9117 9.63281H19.6255C20.314 9.63281 20.6729 9.96973 20.6729 10.6802V20.751C20.6729 21.4395 20.314 21.7983 19.6255 21.7983H17.9117Z" fill="white"/>
<defs>
<filter id="filter0_b_80_419" x="-44" y="-44" width="120" height="120" filterUnits="userSpaceOnUse" color-interpolation-filters="sRGB">
<feFlood flood-opacity="0" result="BackgroundImageFix"/>
<feGaussianBlur in="BackgroundImageFix" stdDeviation="22"/>
<feComposite in2="SourceAlpha" operator="in" result="effect1_backgroundBlur_80_419"/>
<feBlend mode="normal" in="SourceGraphic" in2="effect1_backgroundBlur_80_419" result="shape"/>
</filter>
</defs>
</svg>
