<svg width="15" height="16" viewBox="0 0 15 16" fill="none" xmlns="http://www.w3.org/2000/svg">
<path d="M0.116699 8.00684C0.116699 7.41748 0.606445 6.93604 1.1875 6.93604H6.06836V2.05518C6.06836 1.47412 6.5498 0.984375 7.13916 0.984375C7.72852 0.984375 8.20996 1.47412 8.20996 2.05518V6.93604H13.0908C13.6802 6.93604 14.1616 7.41748 14.1616 8.00684C14.1616 8.59619 13.6802 9.07764 13.0908 9.07764H8.20996V13.9585C8.20996 14.5479 7.72852 15.0293 7.13916 15.0293C6.5498 15.0293 6.06836 14.5479 6.06836 13.9585V9.07764H1.1875C0.606445 9.07764 0.116699 8.59619 0.116699 8.00684Z" fill="#191919"/>
</svg>
