<svg width="16" height="16" viewBox="0 0 16 16" fill="none" xmlns="http://www.w3.org/2000/svg">
<path d="M0.880371 6.80322C0.44043 6.80322 0.116699 6.46289 0.116699 6.03125V1.42432C0.116699 0.577637 0.606445 0.0878906 1.45312 0.0878906H6.06006C6.5083 0.0878906 6.84033 0.40332 6.84033 0.851562C6.84033 1.2998 6.5 1.60693 6.06006 1.60693H5.37109L2.46582 1.44092L4.76514 3.62402L7.33008 6.18066C7.47949 6.33008 7.5542 6.5293 7.5542 6.75342C7.5542 7.21826 7.20557 7.52539 6.73242 7.52539C6.5332 7.52539 6.35059 7.45898 6.20947 7.30957L3.65283 4.73633L1.46973 2.43701L1.63574 5.33398V6.03125C1.63574 6.47119 1.32031 6.80322 0.880371 6.80322ZM9.98633 15.9258C9.54639 15.9258 9.20605 15.6104 9.20605 15.1621C9.20605 14.7139 9.54639 14.4067 9.98633 14.4067H10.6836L13.5889 14.5728L11.2812 12.3896L8.72461 9.83301C8.5752 9.68359 8.49219 9.48438 8.49219 9.26025C8.49219 8.79541 8.84912 8.48828 9.31396 8.48828C9.51318 8.48828 9.7041 8.55469 9.84521 8.7041L12.3936 11.2773L14.585 13.5767L14.4106 10.6797V9.98242C14.4106 9.54248 14.7344 9.21045 15.166 9.21045C15.6143 9.21045 15.938 9.55078 15.938 9.98242V14.5894C15.938 15.436 15.4399 15.9258 14.5933 15.9258H9.98633Z" fill="#7E7E7E"/>
</svg>
